<svg width="102" height="102" viewBox="0 0 102 102" fill="none" xmlns="http://www.w3.org/2000/svg">
<rect x="1" y="1" width="100" height="100" fill="white"/>
<path d="M26 86C26 91.5228 21.5228 96 16 96C10.4772 96 6 91.5228 6 86C6 80.4772 10.4772 76 16 76C21.5228 76 26 80.4772 26 86Z" fill="black"/>
<path d="M96 16C96 21.5228 91.5228 26 86 26C80.4772 26 76 21.5228 76 16C76 10.4772 80.4772 6 86 6C91.5228 6 96 10.4772 96 16Z" fill="black"/>
<path d="M26 16C26 21.5228 21.5228 26 16 26C10.4772 26 6 21.5228 6 16C6 10.4772 10.4772 6 16 6C21.5228 6 26 10.4772 26 16Z" fill="black"/>
<circle cx="86" cy="86" r="10" fill="black"/>
<path d="M1 1V0H0V1H1ZM101 1H102V0H101V1ZM101 101V102H102V101H101ZM1 101H0V102H1V101ZM1 2H101V0H1V2ZM100 1V101H102V1H100ZM101 100H1V102H101V100ZM2 101V1H0V101H2Z" fill="black"/>
</svg>
